{"title":"Eminem - Space Bound 1080p Anky","uid":6545074,"size":77651238,"categoryP":"video","categoryS":"music_videos","magnet":"?xt=urn:btih:994486dc72faa84e300a3a410660fb6903a704da&amp;dn=Eminem+-+Space+Bound+1080p+Anky&amp;tr=udp%3A%2F%2Ftracker.openbittorrent.com%3A80&amp;tr=udp%3A%2F%2Fopen.demonii.com%3A1337&amp;tr=udp%3A%2F%2Ftracker.coppersurfer.tk%3A6969&amp;tr=udp%3A%2F%2Fexodus.desync.com%3A6969","seeders":0,"leechers":1,"uploader":"ankygautam","files":2,"time":1310821538,"description":"General\nEminem - Space Bound 1080p Anky.mp4\nFormat                           : MPEG-4\nFormat profile                   : Base Media / Version 2\nCodec ID                         : mp42\nFile size                        : 74.1 MiB\nDuration                         : 4mn 24s\nOverall bit rate                 : 2 349 Kbps\n\nVideo\nID                               : 1\nFormat                           : AVC\nFormat/Info                      : Advanced Video Codec\nFormat profile                   : &lt;a class=&quot;__cf_email__&quot; href=&quot;/cdn-cgi/l/email-protection&quot; data-cfemail=&quot;f7bf9e909fb7bbc3d9c7&quot;&gt;[email&amp;#160;protected]&lt;/a&gt;&lt;script cf-hash='f9e31' type=&quot;text/javascript&quot;&gt;\n/* &lt;![CDATA[ */!function(){try{var t=&quot;currentScript&quot;in document?document.currentScript:function(){for(var t=document.getElementsByTagName(&quot;script&quot;),e=t.length;e--;)if(t[e].getAttribute(&quot;cf-hash&quot;))return t[e]}();if(t&amp;&amp;t.previousSibling){var e,r,n,i,c=t.previousSibling,a=c.getAttribute(&quot;data-cfemail&quot;);if(a){for(e=&quot;&quot;,r=parseInt(a.substr(0,2),16),n=2;a.length-n;n+=2)i=parseInt(a.substr(n,2),16)^r,e+=String.fromCharCode(i);e=document.createTextNode(e),c.parentNode.replaceChild(e,c)}}}catch(u){}}();/* ]]&gt; */&lt;/script&gt;\nFormat settings, CABAC           : Yes\nFormat settings, ReFrames        : 1 frame\nCodec ID                         : avc1\nCodec ID/Info                    : Advanced Video Coding\nDuration                         : 4mn 24s\nBit rate mode                    : Variable\nBit rate                         : 2 191 Kbps\nMaximum bit rate                 : 5 204 Kbps\nWidth                            : 1 920 pixels\nHeight                           : 1 080 pixels\nDisplay aspect ratio             : 16:9\nFrame rate mode                  : Variable\nFrame rate                       : 23.976 fps\nMinimum frame rate               : 17.241 fps\nMaximum frame rate               : 24.390 fps\nResolution                       : 24 bits\nColorimetry                      : 4:2:0\nScan type                        : Progressive\nBits/(Pixel*Frame)               : 0.044\nStream size                      : 69.1 MiB (93%)\n\nAudio\nID                               : 2\nFormat                           : AAC\nFormat/Info                      : Advanced Audio Codec\nFormat version                   : Version 4\nFormat profile                   : LC\nFormat settings, SBR             : No\nCodec ID                         : 40\nDuration                         : 4mn 24s\nBit rate mode                    : Variable\nBit rate                         : 152 Kbps\nMaximum bit rate                 : 182 Kbps\nChannel(s)                       : 2 channels\nChannel positions                : L R\nSampling rate                    : 44.1 KHz\nResolution                       : 16 bits\nStream size                      : 4.79 MiB (6%)\n\n &lt;a href=&quot;\nhttp://img.sceper.eu/images/vlcsnadfd.jpg&quot; rel=&quot;nofollow&quot; target=&quot;_NEW&quot;&gt;\nhttp://img.sceper.eu/images/vlcsnadfd.jpg&lt;/a&gt; &lt;a href=&quot;\nhttp://img.sceper.eu/images/vlcsnaxlx.jpg&quot; rel=&quot;nofollow&quot; target=&quot;_NEW&quot;&gt;\nhttp://img.sceper.eu/images/vlcsnaxlx.jpg&lt;/a&gt; &lt;a href=&quot;\nhttp://img.sceper.eu/images/vlcsnaogo.jpg&quot; rel=&quot;nofollow&quot; target=&quot;_NEW&quot;&gt;\nhttp://img.sceper.eu/images/vlcsnaogo.jpg&lt;/a&gt;","torrent":{"xt":"urn:btih:994486dc72faa84e300a3a410660fb6903a704da","amp;dn":"Eminem+-+Space+Bound+1080p+Anky","amp;tr":["udp%3A%2F%2Ftracker.openbittorrent.com%3A80","udp%3A%2F%2Fopen.demonii.com%3A1337","udp%3A%2F%2Ftracker.coppersurfer.tk%3A6969","udp%3A%2F%2Fexodus.desync.com%3A6969"],"infoHash":"994486dc72faa84e300a3a410660fb6903a704da","infoHashBuffer":{"type":"Buffer","data":[153,68,134,220,114,250,168,78,48,10,58,65,6,96,251,105,3,167,4,218]},"announce":[],"urlList":[]}}